<svg width="20" height="20" viewBox="0 0 20 20" fill="none" xmlns="http://www.w3.org/2000/svg">
<path d="M4.37579 16.875C4.37579 17.0407 4.30994 17.1997 4.19273 17.3169C4.07552 17.4341 3.91655 17.5 3.75079 17.5C3.58503 17.5 3.42606 17.4341 3.30885 17.3169C3.19164 17.1997 3.12579 17.0407 3.12579 16.875V5.88372L1.69329 7.31747C1.63518 7.37558 1.56619 7.42168 1.49027 7.45313C1.41434 7.48458 1.33297 7.50076 1.25079 7.50076C1.08482 7.50076 0.925648 7.43483 0.80829 7.31747C0.690931 7.20012 0.625 7.04094 0.625 6.87497C0.625 6.709 0.690931 6.54983 0.80829 6.43247L3.30829 3.93372L3.31704 3.92497C3.43454 3.81085 3.59229 3.74764 3.75608 3.74905C3.91987 3.75045 4.07651 3.81636 4.19204 3.93247L6.69204 6.43247C6.75015 6.4905 6.79626 6.55941 6.82774 6.63526C6.85922 6.7111 6.87545 6.79241 6.87551 6.87453C6.87557 6.95665 6.85945 7.03798 6.82808 7.11388C6.79671 7.18977 6.75069 7.25874 6.69266 7.31685C6.63464 7.37496 6.56573 7.42107 6.48988 7.45255C6.41403 7.48403 6.33273 7.50026 6.25061 7.50032C6.16848 7.50038 6.08716 7.48426 6.01126 7.45289C5.93537 7.42152 5.8664 7.3755 5.80829 7.31747L4.37579 5.88372V16.875ZM9.37579 4.99997C9.21003 4.99997 9.05106 4.93413 8.93385 4.81692C8.81664 4.69971 8.75079 4.54073 8.75079 4.37497C8.75079 4.20921 8.81664 4.05024 8.93385 3.93303C9.05106 3.81582 9.21003 3.74997 9.37579 3.74997H10.6258C10.7915 3.74997 10.9505 3.81582 11.0677 3.93303C11.1849 4.05024 11.2508 4.20921 11.2508 4.37497C11.2508 4.54073 11.1849 4.69971 11.0677 4.81692C10.9505 4.93413 10.7915 4.99997 10.6258 4.99997H9.37579ZM9.37579 8.74997C9.21003 8.74997 9.05106 8.68413 8.93385 8.56692C8.81664 8.44971 8.75079 8.29073 8.75079 8.12497C8.75079 7.95921 8.81664 7.80024 8.93385 7.68303C9.05106 7.56582 9.21003 7.49997 9.37579 7.49997H13.1258C13.2915 7.49997 13.4505 7.56582 13.5677 7.68303C13.6849 7.80024 13.7508 7.95921 13.7508 8.12497C13.7508 8.29073 13.6849 8.44971 13.5677 8.56692C13.4505 8.68413 13.2915 8.74997 13.1258 8.74997H9.37579ZM9.37579 12.5C9.21003 12.5 9.05106 12.4341 8.93385 12.3169C8.81664 12.1997 8.75079 12.0407 8.75079 11.875C8.75079 11.7092 8.81664 11.5502 8.93385 11.433C9.05106 11.3158 9.21003 11.25 9.37579 11.25H15.6258C15.7915 11.25 15.9505 11.3158 16.0677 11.433C16.1849 11.5502 16.2508 11.7092 16.2508 11.875C16.2508 12.0407 16.1849 12.1997 16.0677 12.3169C15.9505 12.4341 15.7915 12.5 15.6258 12.5H9.37579ZM8.75079 15.625C8.75079 15.7907 8.81664 15.9497 8.93385 16.0669C9.05106 16.1841 9.21003 16.25 9.37579 16.25H18.1258C18.2915 16.25 18.4505 16.1841 18.5677 16.0669C18.6849 15.9497 18.7508 15.7907 18.7508 15.625C18.7508 15.4592 18.6849 15.3002 18.5677 15.183C18.4505 15.0658 18.2915 15 18.1258 15H9.37579C9.21003 15 9.05106 15.0658 8.93385 15.183C8.81664 15.3002 8.75079 15.4592 8.75079 15.625Z" fill="white"/>
</svg>
