<svg width="20" height="20" viewBox="0 0 20 20" fill="none" xmlns="http://www.w3.org/2000/svg">
<path d="M15 18.75H2.5C2.16858 18.7497 1.85083 18.6179 1.61648 18.3835C1.38213 18.1492 1.25033 17.8314 1.25 17.5V13.75C1.25033 13.4186 1.38213 13.1008 1.61648 12.8665C1.85083 12.6321 2.16858 12.5003 2.5 12.5H15C15.3314 12.5003 15.6492 12.6321 15.8835 12.8665C16.1179 13.1008 16.2497 13.4186 16.25 13.75V17.5C16.2497 17.8314 16.1179 18.1492 15.8835 18.3835C15.6492 18.6179 15.3314 18.7497 15 18.75V18.75ZM2.5 13.75H2.49875L2.5 17.5H15V13.75H2.5ZM18.75 2.13125L17.8688 1.25L15.625 3.49375L13.3812 1.25L12.5 2.13125L14.7438 4.375L12.5 6.61875L13.3812 7.5L15.625 5.25625L17.8688 7.5L18.75 6.61875L16.5062 4.375L18.75 2.13125Z" fill="#F04949"/>
<path d="M2.5 8.75V5H11.25V3.75H2.5C2.16858 3.75033 1.85083 3.88213 1.61648 4.11648C1.38213 4.35083 1.25033 4.66858 1.25 5V8.75C1.25033 9.08142 1.38213 9.39917 1.61648 9.63352C1.85083 9.86787 2.16858 9.99967 2.5 10H16.25V8.75H2.5Z" fill="#F04949"/>
</svg>
