<svg width="20" height="20" viewBox="0 0 20 20" fill="none" xmlns="http://www.w3.org/2000/svg">
<path d="M17.5 7.5H6.25C5.91858 7.49967 5.60083 7.36787 5.36648 7.13352C5.13213 6.89917 5.00033 6.58142 5 6.25V2.5C5.00033 2.16858 5.13213 1.85083 5.36648 1.61648C5.60083 1.38213 5.91858 1.25033 6.25 1.25H17.5C17.8314 1.25033 18.1492 1.38213 18.3835 1.61648C18.6179 1.85083 18.7497 2.16858 18.75 2.5V6.25C18.7497 6.58142 18.6179 6.89917 18.3835 7.13352C18.1492 7.36787 17.8314 7.49967 17.5 7.5V7.5ZM6.25 2.5V6.25H17.5V2.5H6.25ZM17.5 18.75H6.25C5.91858 18.7497 5.60083 18.6179 5.36648 18.3835C5.13213 18.1492 5.00033 17.8314 5 17.5V13.75C5.00033 13.4186 5.13213 13.1008 5.36648 12.8665C5.60083 12.6321 5.91858 12.5003 6.25 12.5H17.5C17.8314 12.5003 18.1492 12.6321 18.3835 12.8665C18.6179 13.1008 18.7497 13.4186 18.75 13.75V17.5C18.7497 17.8314 18.6179 18.1492 18.3835 18.3835C18.1492 18.6179 17.8314 18.7497 17.5 18.75ZM6.25 13.75V17.5H17.5V13.75H6.25ZM5.625 10L2.13375 6.50875L1.25 7.3925L3.8575 10L1.25 12.6075L2.13375 13.4913L5.625 10Z" fill="#405DC5"/>
</svg>
