<svg width="20" height="20" viewBox="0 0 20 20" fill="none" xmlns="http://www.w3.org/2000/svg">
<path d="M17.5 18.75H13.75C13.4186 18.7497 13.1008 18.6179 12.8665 18.3835C12.6321 18.1492 12.5003 17.8314 12.5 17.5V6.25C12.5003 5.91858 12.6321 5.60083 12.8665 5.36648C13.1008 5.13213 13.4186 5.00033 13.75 5H17.5C17.8314 5.00033 18.1492 5.13213 18.3835 5.36648C18.6179 5.60083 18.7497 5.91858 18.75 6.25V17.5C18.7497 17.8314 18.6179 18.1492 18.3835 18.3835C18.1492 18.6179 17.8314 18.7497 17.5 18.75ZM13.75 6.25V17.5H17.5V6.25H13.75ZM10 5.625L13.4913 2.13375L12.6075 1.25L10 3.8575L7.3925 1.25L6.50875 2.13375L10 5.625ZM6.25 18.75H2.5C2.16858 18.7497 1.85083 18.6179 1.61648 18.3835C1.38213 18.1492 1.25033 17.8314 1.25 17.5V6.25C1.25033 5.91858 1.38213 5.60083 1.61648 5.36648C1.85083 5.13213 2.16858 5.00033 2.5 5H6.25C6.58142 5.00033 6.89917 5.13213 7.13352 5.36648C7.36787 5.60083 7.49967 5.91858 7.5 6.25V17.5C7.49967 17.8314 7.36787 18.1492 7.13352 18.3835C6.89917 18.6179 6.58142 18.7497 6.25 18.75ZM2.5 6.25V17.5H6.25V6.25H2.5Z" fill="#405DC5"/>
</svg>
