<svg width="20" height="20" viewBox="0 0 20 20" fill="none" xmlns="http://www.w3.org/2000/svg">
<path d="M18.75 2.13125L17.8688 1.25L15.625 3.49375L13.3812 1.25L12.5 2.13125L14.7438 4.375L12.5 6.61875L13.3812 7.5L15.625 5.25625L17.8688 7.5L18.75 6.61875L16.5062 4.375L18.75 2.13125Z" fill="#F04949"/>
<path d="M15 8.75V17.5H11.25V3.75H10V17.5C10.0003 17.8314 10.1321 18.1492 10.3665 18.3835C10.6008 18.6179 10.9186 18.7497 11.25 18.75H15C15.3314 18.7497 15.6492 18.6179 15.8835 18.3835C16.1179 18.1492 16.2497 17.8314 16.25 17.5V8.75H15ZM6.25 18.75H2.5C2.16858 18.7497 1.85083 18.6179 1.61648 18.3835C1.38213 18.1492 1.25033 17.8314 1.25 17.5V5C1.25033 4.66858 1.38213 4.35083 1.61648 4.11648C1.85083 3.88213 2.16858 3.75033 2.5 3.75H6.25C6.58142 3.75033 6.89917 3.88213 7.13352 4.11648C7.36787 4.35083 7.49967 4.66858 7.5 5V17.5C7.49967 17.8314 7.36787 18.1492 7.13352 18.3835C6.89917 18.6179 6.58142 18.7497 6.25 18.75ZM2.5 5V17.5H6.25V5H2.5Z" fill="#F04949"/>
</svg>
