<svg width="20" height="20" viewBox="0 0 20 20" fill="none" xmlns="http://www.w3.org/2000/svg">
<g clip-path="url(#clip0_807_28131)">
<path d="M14.6774 12.9296C15.8878 11.278 16.4299 9.23025 16.1953 7.19607C15.9607 5.1619 14.9667 3.29131 13.4121 1.95855C11.8575 0.625789 9.85709 -0.0708582 7.81095 0.00798323C5.76481 0.0868247 3.82388 0.93534 2.37649 2.38377C0.929091 3.8322 0.0819647 5.77373 0.00458746 7.81993C-0.0727898 9.86613 0.625288 11.8661 1.95916 13.4197C3.29303 14.9733 5.16433 15.966 7.19868 16.1991C9.23302 16.4323 11.2804 15.8887 12.9312 14.6771H12.9299C12.9674 14.7271 13.0074 14.7746 13.0524 14.8209L17.8649 19.6334C18.0993 19.8679 18.4172 19.9998 18.7488 19.9999C19.0804 20 19.3985 19.8684 19.633 19.634C19.8676 19.3996 19.9994 19.0817 19.9995 18.7501C19.9996 18.4185 19.868 18.1004 19.6337 17.8659L14.8212 13.0534C14.7765 13.0081 14.7284 12.9664 14.6774 12.9284V12.9296ZM14.9999 8.12464C14.9999 9.02748 14.8221 9.92147 14.4766 10.7556C14.1311 11.5897 13.6247 12.3476 12.9863 12.986C12.3479 13.6244 11.59 14.1308 10.7559 14.4763C9.92174 14.8218 9.02774 14.9996 8.1249 14.9996C7.22206 14.9996 6.32807 14.8218 5.49395 14.4763C4.65984 14.1308 3.90195 13.6244 3.26354 12.986C2.62514 12.3476 2.11873 11.5897 1.77323 10.7556C1.42773 9.92147 1.2499 9.02748 1.2499 8.12464C1.2499 6.30127 1.97423 4.55259 3.26354 3.26328C4.55286 1.97397 6.30154 1.24964 8.1249 1.24964C9.94826 1.24964 11.6969 1.97397 12.9863 3.26328C14.2756 4.55259 14.9999 6.30127 14.9999 8.12464V8.12464Z" fill="#F3F3F3"/>
</g>
<defs>
<clipPath id="clip0_807_28131">
<rect width="20" height="20" fill="white"/>
</clipPath>
</defs>
</svg>
