<svg width="20" height="20" viewBox="0 0 20 20" fill="none" xmlns="http://www.w3.org/2000/svg">
<path d="M5 3C4.46957 3 3.96086 3.21071 3.58579 3.58579C3.21071 3.96086 3 4.46957 3 5V13C3 13.5304 3.21071 14.0391 3.58579 14.4142C3.96086 14.7893 4.46957 15 5 15H13C13.5304 15 14.0391 14.7893 14.4142 14.4142C14.7893 14.0391 15 13.5304 15 13V6.621C14.9999 6.09061 14.7891 5.58199 14.414 5.207L12.793 3.586C12.418 3.2109 11.9094 3.00011 11.379 3H5ZM4 5C4 4.73478 4.10536 4.48043 4.29289 4.29289C4.48043 4.10536 4.73478 4 5 4H6V5.5C6 5.89782 6.15804 6.27936 6.43934 6.56066C6.72064 6.84196 7.10218 7 7.5 7H9.5C9.89782 7 10.2794 6.84196 10.5607 6.56066C10.842 6.27936 11 5.89782 11 5.5V4H11.379C11.6442 4.00006 11.8985 4.10545 12.086 4.293L13.707 5.914C13.8945 6.10149 13.9999 6.35581 14 6.621V13C14 13.2652 13.8946 13.5196 13.7071 13.7071C13.5196 13.8946 13.2652 14 13 14V10.5C13 10.1022 12.842 9.72064 12.5607 9.43934C12.2794 9.15804 11.8978 9 11.5 9H6.5C6.10218 9 5.72064 9.15804 5.43934 9.43934C5.15804 9.72064 5 10.1022 5 10.5V14C4.73478 14 4.48043 13.8946 4.29289 13.7071C4.10536 13.5196 4 13.2652 4 13V5ZM7 5.5V4H10V5.5C10 5.63261 9.94732 5.75979 9.85355 5.85355C9.75979 5.94732 9.63261 6 9.5 6H7.5C7.36739 6 7.24021 5.94732 7.14645 5.85355C7.05268 5.75979 7 5.63261 7 5.5ZM12 10.5V14H6V10.5C6 10.3674 6.05268 10.2402 6.14645 10.1464C6.24021 10.0527 6.36739 10 6.5 10H11.5C11.6326 10 11.7598 10.0527 11.8536 10.1464C11.9473 10.2402 12 10.3674 12 10.5ZM8.5 17C7.58371 17.0013 6.70367 16.6421 6.05 16H13.5C14.163 16 14.7989 15.7366 15.2678 15.2678C15.7366 14.7989 16 14.163 16 13.5V6.05C16.618 6.682 17 7.547 17 8.5V13.5C17 14.4283 16.6313 15.3185 15.9749 15.9749C15.3185 16.6313 14.4283 17 13.5 17H8.5Z" fill="#F3F3F3"/>
</svg>
