<svg width="91" height="32" viewBox="0 0 91 32" fill="none" xmlns="http://www.w3.org/2000/svg">
<path d="M20.5527 17.3331C20.5527 17.3331 24.6307 16.6944 29.2178 15.7402C33.8048 14.786 47.122 10.2609 65.0895 7.33002C83.0569 4.3991 90.2575 11.1532 90.2575 11.1532C87.4898 12.0027 84.8684 13.2704 82.484 14.9125C79.4229 17.1033 76.4874 19.4644 73.6913 21.9846C73.6913 21.9846 75.0191 17.8491 77.0731 15.4119C78.0508 14.1829 79.1557 13.0606 80.3694 12.064C80.3694 12.064 76.6861 10.1971 67.8294 10.7067C58.9728 11.2164 49.869 13.2647 40.5576 14.9118C27.3732 18.4163 20.5527 17.3331 20.5527 17.3331Z" fill="#2F80ED"/>
<path d="M32.7891 12.8069C32.7891 12.8069 45.7869 8.21923 49.992 5.86185C52.9902 4.10735 55.8643 2.14878 58.5938 0L68.6608 5.86185C68.6608 5.86185 62.6712 5.41476 58.5938 6.30892C54.5165 7.20308 48.5333 8.63437 44.8372 9.90855C41.1411 11.1827 32.7891 12.8069 32.7891 12.8069Z" fill="#2F80ED"/>
<path d="M76.7717 28.2509C76.7717 28.2509 70.6014 21.3595 52.6512 20.6058C34.7009 19.8522 12.918 25.1284 12.918 25.1284C12.918 25.1284 34.1862 17.3505 54.564 18.32C74.9419 19.2895 76.7717 28.2509 76.7717 28.2509Z" fill="#2F80ED"/>
<path d="M76.7705 31.9996C76.7705 31.9996 71.4866 25.3573 49.7171 25.112C27.9475 24.8668 0 30.1647 0 30.1647C0 30.1647 29.4919 20.1424 53.1736 22.13C76.8554 24.1176 76.7705 31.9996 76.7705 31.9996Z" fill="#2F80ED"/>
</svg>
