<svg width="20" height="21" viewBox="0 0 20 21" fill="none" xmlns="http://www.w3.org/2000/svg">
<path d="M6.89297 19.4587H3.5263C1.8513 19.4587 1.04297 18.6837 1.04297 17.0837V3.91699C1.04297 2.31699 1.85964 1.54199 3.5263 1.54199H6.89297C8.56797 1.54199 9.3763 2.31699 9.3763 3.91699V17.0837C9.3763 18.6837 8.55964 19.4587 6.89297 19.4587ZM3.5263 2.79199C2.46797 2.79199 2.29297 3.07533 2.29297 3.91699V17.0837C2.29297 17.9253 2.46797 18.2087 3.5263 18.2087H6.89297C7.9513 18.2087 8.1263 17.9253 8.1263 17.0837V3.91699C8.1263 3.07533 7.9513 2.79199 6.89297 2.79199H3.5263Z" fill="#7A7A7A"/>
<path d="M16.475 11.9587H13.1083C11.4333 11.9587 10.625 11.1837 10.625 9.58366V3.91699C10.625 2.31699 11.4417 1.54199 13.1083 1.54199H16.475C18.15 1.54199 18.9583 2.31699 18.9583 3.91699V9.58366C18.9583 11.1837 18.1417 11.9587 16.475 11.9587ZM13.1083 2.79199C12.05 2.79199 11.875 3.07533 11.875 3.91699V9.58366C11.875 10.4253 12.05 10.7087 13.1083 10.7087H16.475C17.5333 10.7087 17.7083 10.4253 17.7083 9.58366V3.91699C17.7083 3.07533 17.5333 2.79199 16.475 2.79199H13.1083Z" fill="#7A7A7A"/>
<path d="M16.475 19.458H13.1083C11.4333 19.458 10.625 18.683 10.625 17.083V15.583C10.625 13.983 11.4417 13.208 13.1083 13.208H16.475C18.15 13.208 18.9583 13.983 18.9583 15.583V17.083C18.9583 18.683 18.1417 19.458 16.475 19.458ZM13.1083 14.458C12.05 14.458 11.875 14.7413 11.875 15.583V17.083C11.875 17.9247 12.05 18.208 13.1083 18.208H16.475C17.5333 18.208 17.7083 17.9247 17.7083 17.083V15.583C17.7083 14.7413 17.5333 14.458 16.475 14.458H13.1083Z" fill="#7A7A7A"/>
</svg>
