<svg width="20" height="20" viewBox="0 0 20 20" fill="none" xmlns="http://www.w3.org/2000/svg">
<g clip-path="url(#clip0_847_28138)">
<path d="M7.58789 18.75C7.68555 18.9779 7.80273 19.196 7.93945 19.4043C8.07617 19.6126 8.23242 19.8112 8.4082 20H0V0H15V8.89648C14.7917 8.83789 14.5833 8.78255 14.375 8.73047C14.1667 8.67839 13.9583 8.63607 13.75 8.60352V1.25H1.25V18.75H7.58789ZM12.5 5H2.5V3.75H12.5V5ZM2.5 7.5H12.5V8.75H2.5V7.5ZM11.875 13.75C12.3047 13.75 12.7083 13.8314 13.0859 13.9941C13.4635 14.1569 13.7923 14.3815 14.0723 14.668C14.3522 14.9544 14.5768 15.2865 14.7461 15.6641C14.9154 16.0417 15 16.4453 15 16.875C15 17.3047 14.9186 17.7083 14.7559 18.0859C14.5931 18.4635 14.3685 18.7956 14.082 19.082C13.7956 19.3685 13.4635 19.5931 13.0859 19.7559C12.7083 19.9186 12.3047 20 11.875 20C11.4453 20 11.0417 19.9186 10.6641 19.7559C10.2865 19.5931 9.95443 19.3717 9.66797 19.0918C9.38151 18.8118 9.1569 18.4798 8.99414 18.0957C8.83138 17.7116 8.75 17.3047 8.75 16.875C8.75 16.4453 8.83138 16.0417 8.99414 15.6641C9.1569 15.2865 9.37826 14.9577 9.6582 14.6777C9.93815 14.3978 10.2702 14.1732 10.6543 14.0039C11.0384 13.8346 11.4453 13.75 11.875 13.75ZM11.875 18.75C12.1354 18.75 12.3796 18.7012 12.6074 18.6035C12.8353 18.5059 13.0339 18.3724 13.2031 18.2031C13.3724 18.0339 13.5059 17.8353 13.6035 17.6074C13.7012 17.3796 13.75 17.1354 13.75 16.875C13.75 16.6146 13.7012 16.3704 13.6035 16.1426C13.5059 15.9147 13.3724 15.7161 13.2031 15.5469C13.0339 15.3776 12.8353 15.2441 12.6074 15.1465C12.3796 15.0488 12.1354 15 11.875 15C11.6146 15 11.3704 15.0488 11.1426 15.1465C10.9147 15.2441 10.7161 15.3776 10.5469 15.5469C10.3776 15.7161 10.2441 15.9147 10.1465 16.1426C10.0488 16.3704 10 16.6146 10 16.875C10 17.1354 10.0488 17.3796 10.1465 17.6074C10.2441 17.8353 10.3776 18.0339 10.5469 18.2031C10.7161 18.3724 10.9147 18.5059 11.1426 18.6035C11.3704 18.7012 11.6146 18.75 11.875 18.75ZM11.875 10C12.526 10 13.1771 10.0684 13.8281 10.2051C14.4792 10.3418 15.1074 10.5501 15.7129 10.8301C16.3184 11.11 16.8815 11.4453 17.4023 11.8359C17.9232 12.2266 18.3757 12.679 18.7598 13.1934C19.1439 13.7077 19.4466 14.2708 19.668 14.8828C19.8893 15.4948 20 16.1589 20 16.875H18.75C18.75 16.2826 18.6556 15.7324 18.4668 15.2246C18.278 14.7168 18.0143 14.2546 17.6758 13.8379C17.3372 13.4212 16.9499 13.0534 16.5137 12.7344C16.0775 12.4154 15.599 12.1452 15.0781 11.9238C14.5573 11.7025 14.0299 11.5365 13.4961 11.4258C12.9622 11.3151 12.4219 11.2565 11.875 11.25C11.3411 11.25 10.8008 11.3053 10.2539 11.416C9.70703 11.5267 9.17969 11.6927 8.67188 11.9141C8.16406 12.1354 7.6888 12.4056 7.24609 12.7246C6.80339 13.0436 6.41276 13.4147 6.07422 13.8379C5.73568 14.2611 5.47526 14.7233 5.29297 15.2246C5.11068 15.7259 5.01302 16.276 5 16.875H3.75C3.75 16.1654 3.86068 15.5013 4.08203 14.8828C4.30339 14.2643 4.60612 13.7012 4.99023 13.1934C5.37435 12.6855 5.82682 12.2331 6.34766 11.8359C6.86849 11.4388 7.42839 11.1035 8.02734 10.8301C8.6263 10.5566 9.25456 10.3516 9.91211 10.2148C10.5697 10.0781 11.224 10.0065 11.875 10Z" fill="#405DC5"/>
</g>
<defs>
<clipPath id="clip0_847_28138">
<rect width="20" height="20" fill="white"/>
</clipPath>
</defs>
</svg>
