<svg width="20" height="20" viewBox="0 0 20 20" fill="none" xmlns="http://www.w3.org/2000/svg">
<path d="M1 3.75C1 3.02065 1.28973 2.32118 1.80546 1.80546C2.32118 1.28973 3.02065 1 3.75 1H13.714C14.141 0.999894 14.5637 1.08392 14.9582 1.24726C15.3527 1.41061 15.7111 1.65008 16.013 1.952L18.048 3.987C18.658 4.597 19 5.424 19 6.286V16.25C19 16.9793 18.7103 17.6788 18.1945 18.1945C17.6788 18.7103 16.9793 19 16.25 19H3.75C3.02065 19 2.32118 18.7103 1.80546 18.1945C1.28973 17.6788 1 16.9793 1 16.25V3.75ZM3.75 2.5C3.06 2.5 2.5 3.06 2.5 3.75V16.25C2.5 16.94 3.06 17.5 3.75 17.5H4V12.25C4 11.6533 4.23705 11.081 4.65901 10.659C5.08097 10.2371 5.65326 10 6.25 10H13.75C14.3467 10 14.919 10.2371 15.341 10.659C15.7629 11.081 16 11.6533 16 12.25V17.5H16.25C16.94 17.5 17.5 16.94 17.5 16.25V6.286C17.5 5.821 17.316 5.376 16.987 5.048L14.952 3.013C14.6937 2.75422 14.3607 2.58286 14 2.523V5.25C14 5.54547 13.9418 5.83805 13.8287 6.11104C13.7157 6.38402 13.5499 6.63206 13.341 6.84099C13.1321 7.04992 12.884 7.21566 12.611 7.32873C12.3381 7.4418 12.0455 7.5 11.75 7.5H7.25C6.65326 7.5 6.08097 7.26295 5.65901 6.84099C5.23705 6.41903 5 5.84674 5 5.25V2.5H3.75ZM14.5 17.5V12.25C14.5 12.0511 14.421 11.8603 14.2803 11.7197C14.1397 11.579 13.9489 11.5 13.75 11.5H6.25C6.05109 11.5 5.86032 11.579 5.71967 11.7197C5.57902 11.8603 5.5 12.0511 5.5 12.25V17.5H14.5ZM6.5 2.5V5.25C6.5 5.664 6.836 6 7.25 6H11.75C11.9489 6 12.1397 5.92098 12.2803 5.78033C12.421 5.63968 12.5 5.44891 12.5 5.25V2.5H6.5Z" fill="white"/>
</svg>
